<?xml version="1.0" standalone="no"?>
<!DOCTYPE svg PUBLIC "-//W3C//DTD SVG 20010904//EN"
 "http://www.w3.org/TR/2001/REC-SVG-20010904/DTD/svg10.dtd">
<svg version="1.0" xmlns="http://www.w3.org/2000/svg"
 width="240.000000pt" height="240.000000pt" viewBox="0 0 240.000000 240.000000"
 preserveAspectRatio="xMidYMid meet">
<metadata>
Created by potrace 1.11, written by Peter Selinger 2001-2013
</metadata>
<g transform="translate(0.000000,240.000000) scale(0.100000,-0.100000)"
fill="#000000" stroke="none">
<path d="M960 2380 c-242 -51 -436 -155 -605 -325 -189 -189 -309 -427 -344
-679 -13 -94 -14 -313 -2 -320 5 -3 35 6 67 20 99 44 238 75 365 81 218 11
394 -25 799 -162 290 -97 381 -123 490 -135 249 -28 405 86 499 365 18 55 35
107 38 115 10 28 21 -31 22 -120 1 -102 -26 -225 -70 -317 -56 -117 -172 -206
-308 -234 -93 -19 -267 -6 -401 30 -674 183 -963 222 -1235 165 -90 -19 -195
-67 -195 -90 0 -23 81 -182 129 -252 114 -166 281 -312 456 -400 278 -138 628
-162 927 -62 203 68 403 202 521 348 195 244 272 440 284 727 5 111 2 142 -16
214 -39 154 -123 255 -228 275 -18 3 -33 4 -33 3 0 -1 11 -29 25 -62 34 -83
34 -163 -1 -233 -30 -61 -69 -96 -144 -131 -75 -35 -192 -36 -263 -2 -154 75
-227 294 -152 459 32 71 115 156 187 190 112 54 255 67 359 32 34 -12 64 -19
67 -16 9 10 -109 155 -176 217 -179 164 -380 264 -609 304 -120 21 -344 19
-453 -5z"/>
</g>
</svg>
